<svg width="16" height="16" viewBox="0 0 16 16" fill="none" xmlns="http://www.w3.org/2000/svg">
<path fill-rule="evenodd" clip-rule="evenodd" d="M8 9.98902L10.4464 11.2195L9.98083 8.62248L11.8929 6.8394L9.24422 6.47119L8 4.05928L6.75578 6.47119L4.10713 6.8394L6.01917 8.62248L5.55359 11.2195L8 9.98902ZM2.57589 7.05227L2.14594 6.65131C1.86243 6.38693 2.01545 5.91864 2.40295 5.86477L5.97448 5.36827L7.58215 2.25181C7.75535 1.91606 8.24465 1.91606 8.41785 2.25181L10.0255 5.36827L13.5971 5.86477C13.9846 5.91864 14.1376 6.38693 13.8541 6.65131L13.4241 7.05223L11.2774 9.05422L11.8881 12.4609C11.955 12.8342 11.5573 13.1215 11.2132 12.9484L8 11.3323L4.78684 12.9484C4.44272 13.1215 4.04498 12.8342 4.11191 12.4609L4.72264 9.05422L2.57589 7.05227Z" fill="#478CC8"/>
</svg>
